# xmcd CD database file
#
# Track frame offsets:
#	150
#	18523
#	40160
#	58495
#
# Disc length: 1062 seconds
#
# Revision: 0
# Processed by: cddbd v1.5.1PL0 Copyright (c) Steve Scherf et al.
# Submitted via: CDex 1.51
#
DISCID=32042404
DTITLE=La'cryma Christi - 情熱の風
DYEAR=2002
DGENRE=JPop
TTITLE0=情熱の風
TTITLE1=Can't hold you in my dream
TTITLE2=情熱の風 (unvocal version)
TTITLE3=Can't hold you in my dream (unvocal version)
EXTD=YEAR: 2002
EXTT0=
EXTT1=
EXTT2=
EXTT3=
PLAYORDER=
